<svg xmlns="http://www.w3.org/2000/svg" xmlns:stDim="http://ns.adobe.com/xap/1.0/sType/Dimensions#" xmlns:svg="http://www.w3.org/2000/svg" xmlns:x="adobe:ns:meta/" xmlns:xmp="http://ns.adobe.com/xap/1.0/" xmlns:xmpG="http://ns.adobe.com/xap/1.0/g/" xmlns:xmpGImg="http://ns.adobe.com/xap/1.0/g/img/" xmlns:xmpTPg="http://ns.adobe.com/xap/1.0/t/pg/" id="Layer_1" width="548.611" height="81.808" x="0" y="0" enable-background="new 34.562 356.156 548.611 81.808" version="1.1" viewBox="34.562 356.156 548.611 81.808" xml:space="preserve"><metadata id="metadata2"><?xpacket begin="﻿" id="W5M0MpCehiHzreSzNTczkc9d"?><x:xmpmeta x:xmptk="Adobe XMP Core 5.3-c011 66.145661, 2012/02/06-14:56:27"/><?xpacket end="w"?></metadata><g id="g85"><g id="g10"><g id="g8"><polygon id="polygon4" fill="#B3B2B2" points="304.867 365.362 303.057 365.362 303.057 364.607 307.434 364.607 307.434 365.362 305.622 365.362 305.622 370.192 304.867 370.192"/><polygon id="polygon6" fill="#B3B2B2" points="308.037 364.607 309.094 364.607 310.905 369.286 312.716 364.607 313.621 364.607 313.621 370.192 313.018 370.192 313.018 365.664 313.018 365.664 311.206 370.192 310.603 370.192 308.792 365.664 308.792 365.664 308.792 370.192 308.037 370.192"/></g></g><path id="path12" fill="#B3B2B2" d="M334.449,356.156h4.074v79.538h-4.074V356.156z"/><g id="g28" style="fill:#000"><path id="path14" fill="#FFF" d="M366.294,365.061h19.771c18.715,0,31.543,12.829,31.543,29.43v0.151c0,16.753-12.828,29.732-31.543,29.732 h-19.771V365.061L366.294,365.061z M370.671,368.984v51.164h15.395c16.45,0,27.016-11.32,27.016-25.356v-0.151 c0-14.036-10.414-25.657-27.016-25.657H370.671z" style="fill:#000"/><path id="path16" fill="#FFF" d="M424.853,364.155h5.132v5.735h-5.132V364.155z M425.456,381.059h4.227v43.164h-4.227V381.059z" style="fill:#000"/><path id="path18" fill="#FFF" d="M439.946,431.468l2.415-3.321c5.131,3.925,11.168,6.037,17.507,6.037c9.961,0,16.903-5.734,16.903-16.752 v-6.34c-3.772,5.283-9.508,9.962-18.11,9.962c-10.414,0-20.828-7.999-20.828-20.375v-0.151c0-12.526,10.414-20.525,20.828-20.525 c8.603,0,14.488,4.528,18.11,9.659v-8.603h4.227v36.523c0,6.339-1.962,11.169-5.434,14.64c-3.773,3.773-9.357,5.735-15.696,5.735 C452.623,438.108,445.983,435.844,439.946,431.468z M477.073,400.679v-0.151c0-9.96-8.905-16.45-17.81-16.45 c-9.056,0-16.753,6.339-16.753,16.3v0.15c0,9.811,7.849,16.451,16.753,16.451C468.168,417.129,477.073,410.488,477.073,400.679z" style="fill:#000"/><path id="path20" fill="#FFF" d="M490.053,364.155h5.131v5.735h-5.131V364.155z M490.505,381.059h4.226v43.164h-4.226V381.059z" style="fill:#000"/><path id="path22" fill="#FFF" d="M508.315,413.205v-28.374h-6.339v-3.773h6.339v-13.885h4.226v13.885h15.243v3.773H512.54v27.92 c0,6.188,3.622,8.452,8.603,8.452c2.113,0,3.924-0.452,6.339-1.509v3.924c-2.264,1.057-4.377,1.51-7.093,1.51 C513.747,425.129,508.315,421.506,508.315,413.205z" style="fill:#000"/><path id="path24" fill="#FFF" d="M531.255,411.696v-0.151c0-9.055,7.697-14.035,18.865-14.035c6.037,0,10.112,0.754,14.338,1.811v-1.811 c0-8.754-5.282-13.282-14.187-13.282c-5.282,0-9.509,1.509-13.583,3.471l-1.51-3.622c4.679-2.264,9.357-3.773,15.395-3.773 c5.886,0,10.564,1.66,13.583,4.679c2.868,2.868,4.377,6.792,4.377,12.225v27.016h-4.075v-7.244 c-3.019,4.226-8.301,8.15-16.45,8.15C539.858,425.279,531.255,420.752,531.255,411.696z M564.61,408.074v-4.98 c-3.622-0.906-8.452-1.963-14.64-1.963c-9.207,0-14.188,4.076-14.188,10.112v0.151c0,6.339,5.887,9.961,12.527,9.961 C557.063,421.506,564.61,416.073,564.61,408.074z" style="fill:#000"/><path id="path26" fill="#FFF" d="M578.948,362.495h4.226v61.879h-4.226V362.495z" style="fill:#000"/></g><g id="g83"><g id="g34"><polygon id="polygon30" fill="#EDEDED" points="35.015 424.072 35.015 365.211 54.635 365.211 54.635 407.168 82.405 407.168 82.405 424.072"/><path id="path32" fill="#B2B2B2" d="M54.182,365.664v41.052v0.905h0.905h26.714v15.848H35.467v-57.805H54.182 M55.239,364.607H34.562v59.917 h48.296v-17.809H55.239V364.607L55.239,364.607z" style="fill:#000"/></g><g id="g40"><polygon id="polygon36" fill="#EDEDED" points="137.341 424.072 137.341 394.943 123.909 415.771 123.456 415.771 110.025 394.943 110.025 424.072 90.705 424.072 90.705 365.211 111.232 365.211 123.909 385.737 136.436 365.211 156.962 365.211 156.962 424.072"/><path id="path38" fill="#B2B2B2" d="M156.509,365.664v57.955h-18.715v-27.016v-3.169l-1.811,2.717l-12.226,19.017L111.382,396l-1.811-2.717 v3.169v27.016H91.158v-57.805h19.771l12.074,19.771l0.754,1.358l0.755-1.358l12.074-19.771H156.509 M157.414,364.607h-21.28 l-12.225,20.224l-12.376-20.224h-21.28v59.917h20.224v-27.921l12.678,19.771h0.905l12.678-19.771v27.921h20.526v-59.917H157.414z" style="fill:#000"/></g><g id="g46"><path id="path42" fill="#EDEDED" d="M212.049,424.072l-3.169-7.848h-20.526l-3.019,7.848h-20.979l24.752-59.313h19.47l24.751,59.313H212.049z M193.334,402.188h10.716l-5.282-14.187L193.334,402.188z"/><path id="path44" fill="#B2B2B2" d="M208.277,365.211l24.299,58.408h-20.225l-2.867-7.244l-0.302-0.604h-0.604h-19.923h-0.604l-0.302,0.604 l-2.717,7.244h-20.072l24.449-58.408H208.277 M192.58,402.641h1.358h9.357h1.357l-0.452-1.358l-4.679-12.375l-0.905-2.415 l-0.906,2.415l-4.679,12.375L192.58,402.641 M208.88,364.306h-20.225l-25.204,60.219h22.187l3.018-7.848h19.923l3.169,7.848 h22.337L208.88,364.306L208.88,364.306z M194.089,401.735l4.679-12.376l4.679,12.376H194.089L194.089,401.735z" style="fill:#000"/></g><g id="g52"><polygon id="polygon48" fill="#EDEDED" points="271.061 375.927 278.305 365.211 300.793 365.211 282.23 392.378"/><path id="path50" fill="#B2B2B2" d="M299.887,365.664l-17.657,25.959l-10.565-15.696l6.942-10.263H299.887 M301.698,364.607h-23.544 l-7.547,11.168l11.772,17.356L301.698,364.607L301.698,364.607z" style="fill:#000"/></g><g id="g58"><polygon id="polygon54" fill="#EDEDED" points="279.211 423.921 271.212 412.148 282.23 395.698 301.397 423.921"/><path id="path56" fill="#B2B2B2" d="M282.23,396.604l18.262,26.865h-20.979l-7.697-11.32L282.23,396.604 M282.23,394.943l-11.622,17.205 l8.302,12.376h23.242L282.23,394.943L282.23,394.943z" style="fill:#000"/></g><g id="g64"><polygon id="polygon60" fill="#CB2A27" points="236.952 424.072 257.326 394.038 237.858 365.211 260.195 365.211 279.663 394.038 259.288 424.072"/><path id="path62" fill="#9E2F2B" d="M259.893,365.664l19.167,28.223l-20.073,29.582h-21.129l19.62-28.978l0.453-0.604l-0.453-0.604 l-18.715-27.77h21.13 M260.496,364.607h-23.544l19.922,29.28l-20.677,30.487h23.394l20.676-30.487L260.496,364.607 L260.496,364.607z"/></g><g id="g73"><linearGradient id="SVGID_1_" x1="164.403" x2="164.403" y1="737.698" y2="753.958" gradientTransform="matrix(1.5092 0 0 -1.5092 8.1447 1503.5956)" gradientUnits="userSpaceOnUse"><stop style="stop-color:#fff" id="stop66" offset="0"/><stop style="stop-color:#d83a16" id="stop68" offset=".945"/></linearGradient><path id="path71" fill="url(#SVGID_1_)" d="M238.763,365.664h21.13l13.885,20.526c0,0-5.132,2.415-18.413,3.924L238.763,365.664z"/></g><path id="path75" fill="#FFF" d="M35.467,399.773c5.887-2.415,12.678-4.528,18.715-5.584v-28.525H35.467V399.773z"/><path id="path77" fill="#FFF" d="M123.909,386.793l-12.829-21.129H91.31v25.205c24.299-3.019,48.296-1.962,65.199,0.151v-25.355h-19.62 L123.909,386.793z"/><path id="path79" fill="#FFF" d="M189.41,365.211l-11.923,28.525c5.132,0.905,10.564,1.056,17.81,1.811l3.471-9.207l3.472,9.207 c6.339,0.151,11.47-0.453,18.262-1.509l-12.225-28.827H189.41z"/><path id="path81" fill="#FFF" d="M278.607,365.664l-6.942,10.263l5.735,8.452c5.886-1.811,9.206-3.169,13.734-6.037l8.603-12.678H278.607z"/></g></g></svg>